<svg viewBox="0 0 24 24" fill="none" xmlns="http://www.w3.org/2000/svg">
<path fill-rule="evenodd" clip-rule="evenodd" d="M12 22C18.875 22 22 18.875 22 12C22 5.125 18.875 2 12 2C5.125 2 2 5.125 2 12C2 18.875 5.125 22 12 22ZM12 20C17.5 20 20 17.5 20 12C20 11.5768 19.9852 11.1713 19.9554 10.7834L19.3307 11.4081C19.2535 11.4852 19.2102 11.5899 19.2102 11.699C19.2102 12.0655 18.767 12.2491 18.5078 11.9899L18.2631 11.7452C18.159 11.6412 18.1006 11.5 18.1006 11.3529V11.1693C18.1006 10.6902 17.7122 10.3018 17.2331 10.3018C17.003 10.3018 16.7824 10.3932 16.6197 10.5558L16.3325 10.843C15.9788 11.1967 15.4053 11.1967 15.0516 10.843L14.5915 10.3829C14.4919 10.2833 14.3303 10.2833 14.2307 10.3829C14.1311 10.4826 14.1311 10.6441 14.2307 10.7438L15.5029 12.016C15.6597 12.1728 15.9139 12.1728 16.0706 12.016L16.1184 11.9683C16.1631 11.9236 16.2237 11.8984 16.2869 11.8984C16.4186 11.8984 16.5253 12.0052 16.5253 12.1368V12.6089C16.5253 12.7973 16.4505 12.978 16.3173 13.1112L15.5046 13.9239C15.3171 14.1114 15.2117 14.3658 15.2117 14.631V15.0361C15.2117 15.3014 15.1063 15.5557 14.9188 15.7432L14.8619 15.8002C14.6743 15.9877 14.569 16.2421 14.569 16.5073V16.5855C14.569 16.8507 14.4636 17.105 14.2761 17.2926L13.7259 17.8427C13.6679 17.9007 13.5892 17.9333 13.5072 17.9333C13.3363 17.9333 13.1978 17.7948 13.1978 17.624V17.203C13.1978 17.0093 13.1209 16.8235 12.9839 16.6865L12.4669 16.1695C12.2793 15.9819 12.174 15.7276 12.174 15.4624V14.4928C12.174 14.2641 12.082 14.0436 11.9203 13.8819C11.76 13.7216 11.6688 13.5031 11.6688 13.2764V12.6832C11.6688 12.5387 11.5517 12.4216 11.4073 12.4216C11.3379 12.4216 11.2714 12.4492 11.2224 12.4982L11.0896 12.631C10.8104 12.9102 10.3577 12.9102 10.0785 12.631L9.69298 12.2455C9.50544 12.0579 9.40009 11.8036 9.40009 11.5383V10.9911C9.40009 10.7259 9.50544 10.4715 9.69298 10.284L10.4197 9.55727C10.6072 9.36973 10.8616 9.26437 11.1268 9.26437H11.9407C12.1189 9.26437 12.2899 9.33518 12.4159 9.46121L12.5754 9.62068C12.7498 9.79506 13.0325 9.79506 13.2069 9.62068C13.2906 9.53694 13.4042 9.48989 13.5226 9.48989H14.4089C14.5141 9.48989 14.5994 9.40458 14.5994 9.29933C14.5994 9.24879 14.5793 9.20032 14.5436 9.16458L14.4421 9.0631C14.3414 8.96238 14.2048 8.9058 14.0624 8.9058H13.9319C13.7059 8.9058 13.4892 8.81603 13.3294 8.65624L12.981 8.30789C12.7935 8.12036 12.5392 8.015 12.2739 8.015H12.0325C11.8949 8.015 11.763 8.06965 11.6657 8.16692C11.4632 8.36949 11.1347 8.36949 10.9322 8.16692L10.7633 7.99809C10.4675 7.70228 10.4675 7.22269 10.7633 6.92688L12.3231 5.36714C12.5106 5.1796 12.765 5.07424 13.0302 5.07424H14.7231C14.9883 5.07424 15.2426 4.96889 15.4302 4.78135L15.5495 4.66199C15.6012 4.61032 15.6582 4.56463 15.7195 4.52562C14.6803 4.17219 13.4434 4 12 4C11.0219 4 10.1387 4.07907 9.34749 4.24001C9.36779 4.25886 9.38732 4.27876 9.40601 4.29966L9.41671 4.31163C9.55712 4.46869 9.63473 4.67197 9.63473 4.88263C9.63473 5.09628 9.55491 5.30222 9.41092 5.46005L9.3955 5.47696C9.22198 5.66716 8.97641 5.77554 8.71895 5.77554H8.39401C8.21244 5.77554 8.03879 5.84988 7.91347 5.98127L7.77264 6.12891C7.61759 6.29146 7.3647 6.31039 7.18719 6.17272C7.08019 6.08974 7.01758 5.96195 7.01758 5.82655V5.16349C7.01758 5.1422 7.01825 5.12105 7.01957 5.10005C6.79175 5.23546 6.5773 5.38368 6.37607 5.54487C6.42143 5.55472 6.46432 5.57691 6.49941 5.61068C6.6028 5.7102 6.60438 5.87521 6.5029 5.97669L6.27761 6.20198C6.06902 6.41057 6.06951 6.74892 6.27872 6.95691C6.48697 7.16394 6.48854 7.50041 6.28225 7.70939L6.14877 7.84461C6.01278 7.98236 5.82729 8.05989 5.63373 8.05989H5.05567C4.94983 8.05989 4.84844 8.10243 4.77427 8.17794C4.69918 8.2544 4.60937 8.29136 4.5201 8.29681C4.1704 9.33266 4 10.5641 4 12C4 12.1068 4.00094 12.2125 4.00283 12.3171C4.13464 12.2343 4.29052 12.1866 4.45741 12.1866C4.68449 12.1866 4.90228 12.2768 5.06285 12.4373L5.8651 13.2396C6.05264 13.4271 6.30699 13.5325 6.57221 13.5325H6.61222C6.87744 13.5325 7.13179 13.6378 7.31933 13.8254L7.46364 13.9697C7.64339 14.1494 7.74438 14.3932 7.74438 14.6475C7.74438 14.9017 7.64339 15.1455 7.46364 15.3252L6.83753 15.9513C6.65 16.1389 6.54464 16.3932 6.54464 16.6584V16.6851C6.54464 16.9373 6.44446 17.1791 6.26615 17.3574C6.06551 17.5581 5.80641 17.6464 5.55396 17.6352C6.84618 19.2397 8.96691 20 12 20Z" fill="currentColor"></path>
</svg>