<svg viewBox="0 0 25 24" fill="none" xmlns="http://www.w3.org/2000/svg">
<g id="catalog">
<g id="icon">
<path fill-rule="evenodd" clip-rule="evenodd" d="M11.5 7.00098C11.5 10.001 10.5 11.001 7.5 11.001C4.5 11.001 3.5 10.001 3.5 7.00098C3.5 4.00098 4.5 3.00098 7.5 3.00098C10.5 3.00098 11.5 4.00098 11.5 7.00098ZM9.5 7.00098C9.5 8.50098 9 9.00098 7.5 9.00098C6 9.00098 5.5 8.50098 5.5 7.00098C5.5 5.50098 6 5.00098 7.5 5.00098C9 5.00098 9.5 5.50098 9.5 7.00098Z" fill="currentColor"></path>
<path fill-rule="evenodd" clip-rule="evenodd" d="M11.5 17.001C11.5 20.001 10.5 21.001 7.5 21.001C4.5 21.001 3.5 20.001 3.5 17.001C3.5 14.001 4.5 13.001 7.5 13.001C10.5 13.001 11.5 14.001 11.5 17.001ZM9.5 17.001C9.5 18.501 9 19.001 7.5 19.001C6 19.001 5.5 18.501 5.5 17.001C5.5 15.501 6 15.001 7.5 15.001C9 15.001 9.5 15.501 9.5 17.001Z" fill="currentColor"></path>
<path fill-rule="evenodd" clip-rule="evenodd" d="M17.5 11.001C20.5 11.001 21.5 10.001 21.5 7.00098C21.5 4.00098 20.5 3.00098 17.5 3.00098C14.5 3.00098 13.5 4.00098 13.5 7.00098C13.5 10.001 14.5 11.001 17.5 11.001ZM17.5 9.00098C19 9.00098 19.5 8.50098 19.5 7.00098C19.5 5.50098 19 5.00098 17.5 5.00098C16 5.00098 15.5 5.50098 15.5 7.00098C15.5 8.50098 16 9.00098 17.5 9.00098Z" fill="currentColor"></path>
<path fill-rule="evenodd" clip-rule="evenodd" d="M21.5 17.001C21.5 20.001 20.5 21.001 17.5 21.001C14.5 21.001 13.5 20.001 13.5 17.001C13.5 14.001 14.5 13.001 17.5 13.001C20.5 13.001 21.5 14.001 21.5 17.001ZM19.5 17.001C19.5 18.501 19 19.001 17.5 19.001C16 19.001 15.5 18.501 15.5 17.001C15.5 15.501 16 15.001 17.5 15.001C19 15.001 19.5 15.501 19.5 17.001Z" fill="currentColor"></path>
</g>
</g>
</svg>