<svg viewBox="0 0 105 40" fill="none" xmlns="http://www.w3.org/2000/svg">
<g clip-path="url(#clip0_1265_390)">
<path d="M47.9708 12.2065C50.0638 10.9604 53.087 10.5513 55.5201 10.5729C55.8503 10.5583 56.1799 10.6124 56.4883 10.7316C56.7968 10.8508 57.0774 11.0327 57.3126 11.2658C57.7398 11.7269 57.9713 12.3369 57.9579 12.9666C57.9672 13.6036 57.7367 14.2206 57.3126 14.6944C57.0771 14.9476 56.7885 15.1452 56.4677 15.2728C56.1468 15.4004 55.8018 15.4549 55.4574 15.4323C55.3363 15.4323 55.1763 15.4232 54.9873 15.4125C53.4279 15.3244 49.892 15.1244 49.892 18.9688V27.0678C49.9166 27.8003 49.6816 28.5177 49.2288 29.0926C48.9911 29.3724 48.6913 29.5923 48.3535 29.7346C48.0157 29.8768 47.6494 29.9374 47.284 29.9115C46.916 29.9367 46.5473 29.8759 46.2067 29.7338C45.8661 29.5917 45.563 29.3722 45.3213 29.0926C44.8556 28.5238 44.6134 27.8036 44.6402 27.0678V18.0689C44.6671 16.1072 45.327 13.8623 47.9708 12.2065Z" fill="currentColor"></path>
<path d="M66.5078 29.9205H66.4093C65.9489 29.9528 65.4871 29.8815 65.0576 29.7118C64.6281 29.5421 64.2418 29.2783 63.9268 28.9396C63.2505 28.0093 62.7715 26.9496 62.5197 25.826L59.1231 14.5144C58.9565 14.091 58.8884 13.6349 58.9241 13.1811C58.9599 12.7272 59.0984 12.2876 59.3292 11.8957C59.5735 11.5349 59.9089 11.2457 60.3009 11.0576C60.693 10.8694 61.1277 10.7891 61.5608 10.8248C61.8355 10.8039 62.1116 10.8429 62.37 10.9392C62.6283 11.0355 62.8629 11.1868 63.0575 11.3828C63.4399 11.8541 63.707 12.4089 63.8372 13.0026L66.5885 23.6932H66.6513L69.0262 14.6944C69.228 13.5947 69.6687 12.5531 70.3167 11.6437C70.5812 11.3462 70.908 11.1112 71.2737 10.9556C71.6394 10.8 72.0349 10.7277 72.4318 10.7439H72.6379C73.0106 10.7326 73.3809 10.8079 73.7198 10.964C74.0587 11.1201 74.3571 11.3527 74.5917 11.6437C75.1847 12.5544 75.5957 13.5722 75.8015 14.6404L78.2034 23.6392H78.2751L80.9637 12.9486C81.3312 11.4998 82.084 10.7709 83.2312 10.7709C83.6684 10.7266 84.1093 10.801 84.5081 10.9861C84.907 11.1713 85.249 11.4606 85.4985 11.8237C85.7192 12.2231 85.8496 12.6664 85.8806 13.122C85.9115 13.5777 85.8423 14.0346 85.6778 14.4604L82.308 25.772C81.9848 26.8694 81.4788 27.9039 80.8114 28.8316C80.5266 29.1679 80.1701 29.4355 79.7682 29.6146C79.3664 29.7938 78.9296 29.8798 78.4902 29.8665H78.3826C77.9407 29.9032 77.4964 29.8351 77.0855 29.6679C76.6745 29.5007 76.3084 29.2389 76.0166 28.9036C75.3656 27.9556 74.8974 26.8933 74.6365 25.772L72.4049 17.403H72.3332L70.1375 25.772C69.8555 26.8582 69.3886 27.8872 68.7573 28.8136C68.5 29.1676 68.1608 29.4533 67.7689 29.6462C67.3769 29.839 66.9441 29.9331 66.5078 29.9205Z" fill="currentColor"></path>
<path d="M95.8676 29.9202H96.1364C96.6158 29.942 97.0941 29.8573 97.5371 29.6722C97.9802 29.4871 98.3771 29.2061 98.6996 28.8493C99.5806 27.6887 100.246 26.3778 100.662 24.9798L104.821 14.3251C104.975 13.9244 105.041 13.4952 105.014 13.0666C104.988 12.638 104.87 12.2201 104.668 11.8414C104.458 11.5025 104.158 11.2283 103.802 11.0489C103.447 10.8696 103.049 10.7919 102.652 10.8246C102.081 10.8281 101.528 11.027 101.085 11.3886C100.642 11.7502 100.334 12.2528 100.214 12.8133L95.9841 24.8718H95.9124L91.754 12.8133C91.5863 12.2548 91.3056 11.7371 90.9295 11.2925C90.7501 11.1276 90.5393 11.0011 90.3097 10.9207C90.0801 10.8402 89.8367 10.8075 89.5941 10.8246C89.1595 10.806 88.7273 10.8977 88.3373 11.0912C87.9472 11.2846 87.612 11.5736 87.3626 11.9314C87.1104 12.2847 86.9539 12.6976 86.9083 13.1298C86.8628 13.562 86.9297 13.9987 87.1026 14.3971L91.2969 25.1958C91.6806 26.5418 92.3197 27.8007 93.179 28.9033C93.5287 29.2558 93.9497 29.529 94.4135 29.7044C94.8773 29.8798 95.3731 29.9534 95.8676 29.9202Z" fill="currentColor"></path>
<path d="M22.7426 0.0162024C25.5533 0.217571 28.2919 1.00253 30.7849 2.32142C15.0653 -0.504224 6.99049 9.14257 6.99049 9.14257C7.40651 7.26064 8.31909 5.52575 9.63257 4.1198C10.9461 2.71384 12.612 1.6886 14.4559 1.15157C17.1101 0.201436 19.9319 -0.185166 22.7426 0.0162024Z" fill="currentColor"></path>
<path fill-rule="evenodd" clip-rule="evenodd" d="M34.0828 17.5478V17.8268C34.1685 18.3784 34.2253 18.9341 34.2531 19.4916V20.5085C34.2483 20.6044 34.2483 20.7005 34.2531 20.7964C34.2476 20.8516 34.2455 20.9059 34.2434 20.9599C34.2386 21.0821 34.2339 21.2025 34.1904 21.3274C34.1534 21.4335 34.1507 21.5146 34.1473 21.615C34.145 21.6848 34.1423 21.7639 34.1276 21.8673C34.0918 22.1193 34.0381 22.3802 33.9843 22.6322C33.2649 25.9858 31.4225 28.9905 28.7643 31.1455C26.106 33.3004 22.7925 34.4755 19.3761 34.4747C15.7439 34.4742 12.2375 33.1394 9.51775 30.7222C8.86412 30.1518 8.26412 29.5222 7.72533 28.8414C5.59108 26.1832 4.43 22.8701 4.4362 19.4556C4.4362 19.2035 4.45249 18.9653 4.46846 18.7317C4.48384 18.5067 4.49894 18.2859 4.49894 18.0608C4.55363 17.4556 4.64642 16.8544 4.77677 16.261C4.85743 15.892 4.99186 15.4241 5.06356 15.1811C5.11327 15.0127 5.18022 14.8183 5.23751 14.6519C5.26284 14.5783 5.28633 14.5101 5.30555 14.4522L5.32886 14.3817C5.37866 14.2307 5.41693 14.1147 5.50269 13.9033C5.60128 13.6603 5.7447 13.3454 5.8164 13.1924C5.83565 13.1513 5.85038 13.1193 5.86405 13.0896C5.9013 13.0087 5.93073 12.9448 6.02251 12.7604C6.12627 12.5521 6.2913 12.2514 6.37573 12.0976C6.3934 12.0654 6.40754 12.0397 6.41685 12.0225C6.45023 11.9611 6.48707 11.9031 6.52308 11.8464C6.54502 11.8119 6.56678 11.7776 6.58713 11.7436C7.11705 10.8526 7.73886 10.0201 8.44229 9.25987L8.514 9.17887C8.75598 8.92691 9.00688 8.68394 9.25782 8.44997V8.40497C12.0018 5.87055 15.594 4.46379 19.3223 4.46347C22.9035 4.46032 26.3656 5.75436 29.073 8.10802C29.4627 8.44103 29.8338 8.79552 30.1844 9.16988V9.21488C30.516 9.57483 30.8296 9.94378 31.1254 10.3307L31.2329 10.4837C31.5022 10.8398 31.7534 11.2092 31.9857 11.5906L32.1201 11.8156C32.3352 12.1845 32.5324 12.5535 32.7206 12.9404L32.855 13.2284C33.0253 13.5973 33.1777 13.9843 33.3211 14.3802C33.3338 14.4185 33.3522 14.4557 33.3706 14.493C33.404 14.5607 33.4376 14.6287 33.4376 14.7042C33.572 15.0911 33.6795 15.4961 33.7781 15.901L33.8678 16.234C33.9574 16.648 34.0291 17.1069 34.0828 17.5478ZM31.0895 17.6648L31.9857 18.5647C31.8291 16.391 31.1252 14.2929 29.9402 12.4671C28.7551 10.6412 27.1276 9.14752 25.2103 8.12601H24.9684L24.0095 9.09789H20.2902L16.7053 12.6974L18.2558 14.2632L19.0803 13.4354H20.3798L21.7062 14.7762H22.6831L23.167 15.2531V15.6851H21.3746L20.6666 16.396L19.6359 15.3521H17.4134L15.4417 17.3409V19.3746L17.2341 21.1744L18.2916 20.1125H18.8114V21.9123L19.5642 22.6682V25.2239L21.1685 26.8347V28.3915H21.7779L23.2208 26.9517V25.6468L24.1708 24.6929V22.8212L26.0707 20.9764V19.3476H25.6764L25.0042 20.0225L22.3156 17.3229L22.8623 16.7739L24.8967 18.8167L26.6891 17.0169H28.4815V18.8167L30.0499 20.3915V18.7087L31.0895 17.6648ZM15.8091 9.26887V8.28799L14.9398 7.3521C13.9006 7.72226 12.9127 8.22427 12.0002 8.84592V10.4207L12.5917 11.0147L13.488 10.1148H14.9667L15.8091 9.26887ZM11.3729 10.1598L10.9069 9.70081C9.22418 11.1466 7.94544 13.0074 7.19654 15.1001L8.74697 13.5433H10.2526L11.337 12.4545L10.2168 11.3206L11.3729 10.1598ZM6.83804 19.7616L6.42582 20.1215H6.45267C6.59579 23.1782 7.82282 26.0827 9.91209 28.3105L11.1667 27.0596V25.8268L12.9592 24.027V22.8212L11.9106 21.7683H10.6201L8.63046 19.7616H6.83804Z" fill="currentColor"></path>
<path d="M5.67288 27.9775C5.67288 27.9775 -0.878384 17.2328 6.76629 3.15858C4.73101 5.11516 3.12247 7.47474 2.04259 10.0879C0.962701 12.7012 0.434996 15.511 0.492817 18.3397C0.412466 20.2656 0.851292 22.1775 1.76301 23.8738C2.67474 25.5701 4.02552 26.9878 5.67288 27.9775Z" fill="currentColor"></path>
<path d="M30.8233 5.50358C32.5574 6.3172 34.0421 7.58331 35.1226 9.16976C36.8577 11.3991 38.1129 13.966 38.8086 16.7078C39.5044 19.4495 39.6255 22.3065 39.1645 25.0978C36.915 9.22375 25.2642 4.54433 25.2642 4.54433C27.1693 4.35869 29.0892 4.68997 30.8233 5.50358Z" fill="currentColor"></path>
<path d="M19.7972 39.9908C22.5889 39.6091 25.2712 38.6498 27.6747 37.1737C30.0781 35.6975 32.1503 33.7366 33.7602 31.4149C37.8648 25.7186 35.2121 20.5533 35.2121 20.5533C35.2121 20.5533 34.2172 33.1157 19.7972 39.9908Z" fill="currentColor"></path>
<path d="M5.0388 32.9077C2.9084 31.0583 1.18345 28.785 -0.026947 26.2317C10.9068 37.9392 23.1042 35.0686 23.1042 35.0686C21.6474 36.3269 19.88 37.1681 17.9876 37.5038C16.0953 37.8395 14.1478 37.6573 12.3497 36.9763C9.65865 36.1426 7.16919 34.7572 5.0388 32.9077Z" fill="currentColor"></path>
</g>
<defs>
<clipPath id="clip0_1265_390">
<rect width="105" height="40" fill="currentColor"></rect>
</clipPath>
</defs>
</svg>