<svg viewBox="0 0 24 24" fill="none" xmlns="http://www.w3.org/2000/svg">
<path fill-rule="evenodd" clip-rule="evenodd" d="M12 18C15 18 16 17 16 14C16 11 15 10 12 10C9 10 8 11 8 14C8 17 9 18 12 18ZM12 16C13.5 16 14 15.5 14 14C14 12.5 13.5 12 12 12C10.5 12 10 12.5 10 14C10 15.5 10.5 16 12 16Z" fill="currentColor"></path>
<path fill-rule="evenodd" clip-rule="evenodd" d="M10.0047 2.75975C11.142 1.74675 12.858 1.74675 13.9953 2.75975L19.7046 7.84482C20.1529 8.24407 20.4939 8.79043 20.6057 9.4344C20.7628 10.3396 21 12.1386 21 14.7517C21 16.1078 20.95 17.1966 20.8802 18.0561C20.7086 20.1696 19.0043 21.5763 17.037 21.7417C15.5186 21.8693 13.5699 22.0017 12 22.0017C10.4301 22.0017 8.48137 21.8693 6.96297 21.7417C4.99573 21.5763 3.29142 20.1696 3.11978 18.0561C3.04998 17.1966 3 16.1078 3 14.7517C3 12.1386 3.23717 10.3396 3.39434 9.4344C3.50615 8.79043 3.84715 8.24407 4.2954 7.84482L10.0047 2.75975ZM12.6651 4.25325C12.286 3.91558 11.714 3.91558 11.3349 4.25325L5.62561 9.33832C5.4738 9.47353 5.39051 9.62877 5.36486 9.77654C5.22612 10.5756 5 12.26 5 14.7517C5 16.0589 5.04819 17.0935 5.11322 17.8942C5.19415 18.8909 5.98829 19.6527 7.13049 19.7487C8.63737 19.8754 10.5175 20.0017 12 20.0017C13.4825 20.0017 15.3626 19.8754 16.8695 19.7487C18.0117 19.6527 18.8058 18.8909 18.8868 17.8942C18.9518 17.0935 19 16.0589 19 14.7517C19 12.26 18.7739 10.5756 18.6351 9.77654C18.6095 9.62877 18.5262 9.47353 18.3744 9.33832L12.6651 4.25325Z" fill="currentColor"></path>
</svg>