<svg viewBox="0 0 24 24" fill="none" xmlns="http://www.w3.org/2000/svg">
<path d="M13 2.98992C13 2.43764 13.4479 1.98892 14 2.00021C15.4661 2.03018 16.7593 2.1214 17.7661 2.21712C19.1574 2.34939 20.2842 3.29846 20.5104 4.67762C20.7569 6.18079 21 8.54838 21 12C21 15.4516 20.7569 17.8191 20.5104 19.3222C20.2842 20.7214 19.1574 21.6705 17.7661 21.7827C16.7593 21.8985 15.4661 21.9897 14 21.9996C13.4479 22.0309 13 21.5822 13 21.0099C13 20.4776 13.448 20.0313 14.0001 19.9954C15.2793 19.9784 16.3673 19.8774 17.1221 19.7681C17.8238 19.7051 18.3898 19.2183 18.5223 18.5042C18.7369 17.3808 19 15.3169 19 12C19 8.68307 18.7369 6.61905 18.5223 5.49561C18.3898 4.80156 17.8238 4.31478 17.1221 4.23176C16.3673 4.14245 15.2793 4.04149 14.0001 4.00449C13.448 3.98853 13 3.54221 13 2.98992Z" fill="currentColor"></path>
<path d="M12.5858 11L9.79289 8.20711C9.40236 7.81658 9.40236 7.18342 9.79289 6.79289C10.1834 6.40237 10.8166 6.40237 11.2071 6.79289L14.2929 9.87868C15.4645 11.0503 15.4645 12.9497 14.2929 14.1213L11.2071 17.2071C10.8166 17.5976 10.1834 17.5976 9.79289 17.2071C9.40236 16.8166 9.40236 16.1834 9.79289 15.7929L12.5858 13H4C3.44772 13 3 12.5523 3 12C3 11.4477 3.44772 11 4 11H12.5858Z" fill="currentColor"></path>
</svg>