<svg viewBox="0 0 24 24" fill="none" xmlns="http://www.w3.org/2000/svg">
<path fill-rule="evenodd" clip-rule="evenodd" d="M16.2889 17.7032C15.0079 18.5792 13.2564 19 11 19C5.5 19 3 16.5 3 11C3 5.5 5.5 3 11 3C16.5 3 19 5.5 19 11C19 13.2564 18.5792 15.0079 17.7032 16.2889L21.2071 19.7929C21.5976 20.1834 21.5976 20.8166 21.2071 21.2071C20.8166 21.5976 20.1834 21.5976 19.7929 21.2071L16.2889 17.7032ZM17 11C17 15.125 15.125 17 11 17C6.875 17 5 15.125 5 11C5 6.875 6.875 5 11 5C15.125 5 17 6.875 17 11Z" fill="currentColor"></path>
</svg>